<?xml version="1.0" encoding="UTF-8" standalone="no"?>
<svg width="27px" height="22px" viewBox="0 0 27 22" version="1.1" xmlns="http://www.w3.org/2000/svg" xmlns:xlink="http://www.w3.org/1999/xlink">
    <!-- Generator: sketchtool 39.1 (31720) - http://www.bohemiancoding.com/sketch -->
    <title>EF0115BA-9FB6-4C5F-A7B9-01DD55C919B1</title>
    <desc>Created with sketchtool.</desc>
    <defs></defs>
    <g id="Desktop---Large" stroke="none" stroke-width="1" fill="none" fill-rule="evenodd">
        <g id="Home-Page" transform="translate(-636.000000, -577.000000)" fill="#E2E2E2">
            <g id="social" transform="translate(596.000000, 577.000000)">
                <path d="M64.80625,5.63491565 C65.025625,5.09491565 65.734375,2.95179065 64.586875,0.049290651 C64.586875,0.049290651 62.815,-0.507584349 58.781875,2.24304065 C57.094375,1.77054065 55.28875,1.70304065 53.5,1.70304065 C51.71125,1.70304065 49.905625,1.77054065 48.218125,2.24304065 C44.185,-0.524459349 42.413125,0.049290651 42.413125,0.049290651 C41.265625,2.95179065 41.974375,5.09491565 42.19375,5.63491565 C40.826875,7.10304065 40,8.99304065 40,11.2880407 C40,19.9786657 45.619375,21.9361657 53.46625,21.9361657 C61.313125,21.9361657 67,19.9786657 67,11.2880407 C67,8.99304065 66.173125,7.10304065 64.80625,5.63491565 L64.80625,5.63491565 Z M53.5,20.2824157 C47.93125,20.2824157 43.40875,20.0292907 43.40875,14.6292907 C43.40875,13.3467907 44.05,12.1317907 45.13,11.1361657 C46.935625,9.48241565 50.02375,10.3599157 53.5,10.3599157 C56.993125,10.3599157 60.0475,9.48241565 61.87,11.1361657 C62.966875,12.1317907 63.59125,13.3299157 63.59125,14.6292907 C63.59125,20.0124157 59.06875,20.2824157 53.5,20.2824157 L53.5,20.2824157 Z M49.264375,11.8280407 C48.150625,11.8280407 47.239375,13.1780407 47.239375,14.8317907 C47.239375,16.4855407 48.150625,17.8524157 49.264375,17.8524157 C50.378125,17.8524157 51.289375,16.5024157 51.289375,14.8317907 C51.289375,13.1611657 50.378125,11.8280407 49.264375,11.8280407 L49.264375,11.8280407 Z M57.735625,11.8280407 C56.621875,11.8280407 55.710625,13.1611657 55.710625,14.8317907 C55.710625,16.5024157 56.621875,17.8524157 57.735625,17.8524157 C58.849375,17.8524157 59.760625,16.5024157 59.760625,14.8317907 C59.760625,13.1611657 58.86625,11.8280407 57.735625,11.8280407 L57.735625,11.8280407 Z" id="Shape"></path>
            </g>
        </g>
    </g>
</svg>