<?xml version="1.0" encoding="UTF-8" standalone="no"?>
<svg width="22px" height="22px" viewBox="0 0 22 22" version="1.1" xmlns="http://www.w3.org/2000/svg" xmlns:xlink="http://www.w3.org/1999/xlink">
    <!-- Generator: sketchtool 39.1 (31720) - http://www.bohemiancoding.com/sketch -->
    <title>3C7BD72D-1010-4DB1-A517-CA3A1687323E</title>
    <desc>Created with sketchtool.</desc>
    <defs></defs>
    <g id="Desktop---Large" stroke="none" stroke-width="1" fill="none" fill-rule="evenodd">
        <g id="Home-Page" transform="translate(-596.000000, -615.000000)" fill="#0074B1">
            <g id="social-copy" transform="translate(596.000000, 615.000000)">
                <g id="social-1_logo-linkedin">
                    <path d="M21.10625,0 L0.89375,0 C0.4125,0 0,0.4125 0,0.89375 L0,21.0375 C0,21.5875 0.4125,22 0.89375,22 L21.0375,22 C21.51875,22 21.93125,21.5875 21.93125,21.10625 L21.93125,0.89375 C22,0.4125 21.5875,0 21.10625,0 L21.10625,0 Z M6.53125,18.76875 L3.23125,18.76875 L3.23125,8.25 L6.53125,8.25 L6.53125,18.76875 L6.53125,18.76875 Z M4.88125,6.80625 C3.85,6.80625 2.95625,5.98125 2.95625,4.88125 C2.95625,3.85 3.78125,2.95625 4.88125,2.95625 C5.9125,2.95625 6.80625,3.78125 6.80625,4.88125 C6.80625,5.98125 5.9125,6.80625 4.88125,6.80625 L4.88125,6.80625 Z M18.76875,18.76875 L15.5375,18.76875 L15.5375,13.68125 C15.5375,12.44375 15.5375,10.93125 13.81875,10.93125 C12.1,10.93125 11.89375,12.2375 11.89375,13.6125 L11.89375,18.8375 L8.6625,18.8375 L8.6625,8.25 L11.6875,8.25 L11.6875,9.69375 L11.75625,9.69375 C12.16875,8.86875 13.26875,7.975 14.85,7.975 C18.15,7.975 18.76875,10.175 18.76875,12.99375 L18.76875,18.76875 L18.76875,18.76875 Z" id="Shape"></path>
                </g>
            </g>
        </g>
    </g>
</svg>